<svg xmlns="http://www.w3.org/2000/svg" width="18" height="18" viewBox="0 0 18 18" fill="none" stroke="currentColor" stroke-width="1.5" stroke-linecap="round" stroke-linejoin="round" class="size-4 text-gray-600 group-hover:text-gray-800 dark:text-gray-300 dark:group-hover:text-gray-100"><path d="M9 1.25V2.25" stroke="currentColor" width="1.5" linecap="round" linejoin="round"></path><path d="M14.48 3.52002L13.773 4.22702" stroke="currentColor" width="1.5" linecap="round" linejoin="round"></path><path d="M16.75 9H15.75" stroke="currentColor" width="1.5" linecap="round" linejoin="round"></path><path d="M14.48 14.4799L13.773 13.7729" stroke="currentColor" width="1.5" linecap="round" linejoin="round"></path><path d="M9 16.75V15.75" stroke="currentColor" width="1.5" linecap="round" linejoin="round"></path><path d="M3.52 14.4799L4.227 13.7729" stroke="currentColor" width="1.5" linecap="round" linejoin="round"></path><path d="M1.25 9H2.25" stroke="currentColor" width="1.5" linecap="round" linejoin="round"></path><path d="M3.52 3.52002L4.227 4.22702" stroke="currentColor" width="1.5" linecap="round" linejoin="round"></path><path d="M9 13.25C11.3472 13.25 13.25 11.3472 13.25 9C13.25 6.65279 11.3472 4.75 9 4.75C6.65279 4.75 4.75 6.65279 4.75 9C4.75 11.3472 6.65279 13.25 9 13.25Z" stroke="currentColor" width="1.5" linecap="round" linejoin="round"></path></svg>